<svg xmlns="http://www.w3.org/2000/svg" width="24" height="24" fill="none" viewBox="0 0 24 24" id="atom"><path fill="url(#paint0_linear_2461_13113)" fill-rule="evenodd" d="M12.0002 4.88051C10.6782 5.71543 9.33587 6.78262 8.05958 8.05892C7.13012 8.98839 6.30946 9.95509 5.60815 10.9255C5.34872 11.2845 5.1062 11.6432 4.88091 11.9999C5.71584 13.3219 6.78306 14.6643 8.05939 15.9406C8.35228 16.2335 8.35228 16.7084 8.05938 17.0013C7.76649 17.2942 7.29162 17.2942 6.99872 17.0013C5.86178 15.8644 4.87102 14.6673 4.04709 13.4617C3.46889 14.5979 3.07872 15.6886 2.88735 16.6761C2.55333 18.3997 2.84345 19.6666 3.58847 20.4116C4.51404 21.3372 6.25887 21.5538 8.60164 20.7729C9.22565 20.5649 9.87511 20.2905 10.5384 19.953C10.3791 19.8441 10.2201 19.7325 10.0614 19.618C9.72552 19.3756 9.64969 18.9068 9.89206 18.5709C10.1344 18.235 10.6032 18.1592 10.9391 18.4016C11.2936 18.6574 11.6479 18.8967 12.0001 19.1192C13.3222 18.2842 14.6647 17.2169 15.9411 15.9405C17.2174 14.6642 18.2846 13.3219 19.1195 11.9999C18.2846 10.6779 17.2173 9.33544 15.9409 8.05905C15.6481 7.76616 15.6481 7.29129 15.941 6.99839C16.2338 6.7055 16.7087 6.7055 17.0016 6.9984C18.1386 8.1354 19.1294 9.33256 19.9534 10.5382C20.291 9.87477 20.5655 9.22514 20.7735 8.60098C21.5544 6.2582 21.3378 4.51337 20.4123 3.58779C19.4867 2.66222 17.7419 2.44561 15.3991 3.22653C14.7749 3.43459 14.1253 3.709 13.4619 4.04667C13.6259 4.15874 13.7896 4.27384 13.953 4.3919C14.2887 4.63452 14.3642 5.10336 14.1216 5.43908C13.879 5.7748 13.4101 5.85028 13.0744 5.60766C12.7155 5.34826 12.3568 5.10578 12.0002 4.88051ZM10.5384 4.04668C9.33289 4.8706 8.13583 5.86134 6.99892 6.99826C6.0144 7.98278 5.14162 9.01018 4.39238 10.047C4.2743 10.2104 4.15918 10.3741 4.04708 10.5382C3.70945 9.87479 3.43506 9.22523 3.22702 8.60112C2.4461 6.25834 2.6627 4.5135 3.58827 3.58793C4.3333 2.8429 5.60023 2.55278 7.32383 2.88681C8.31137 3.0782 9.40217 3.46841 10.5384 4.04668ZM12.0001 3.13124C10.4897 2.27097 8.99153 1.68211 7.60922 1.41421C5.64655 1.03385 3.77343 1.28145 2.52761 2.52727C0.983859 4.07103 0.966697 6.56355 1.804 9.07546C2.1197 10.0226 2.56611 11.0071 3.13166 12C2.27145 13.5103 1.68263 15.0084 1.41475 16.3907C1.0344 18.3534 1.282 20.2265 2.52781 21.4723C4.07156 23.0161 6.56408 23.0332 9.07598 22.1959C10.023 21.8802 11.0074 21.4339 12.0002 20.8684C13.5129 21.73 15.0134 22.3194 16.3976 22.5867C18.3578 22.9653 20.2283 22.7169 21.4727 21.4724C23.0165 19.9287 23.0336 17.4361 22.1963 14.9242C21.8807 13.9772 21.4343 12.9928 20.8688 12C21.4344 11.007 21.8808 10.0225 22.1965 9.07532C23.0338 6.56341 23.0167 4.07089 21.4729 2.52713C19.9292 0.983372 17.4366 0.966207 14.9247 1.80351C13.9776 2.11923 12.9931 2.56566 12.0001 3.13124ZM19.9533 13.4617C19.1294 14.6672 18.1387 15.8643 17.0018 17.0012C15.8648 18.1382 14.6676 19.129 13.4619 19.953C14.6003 20.5324 15.6931 20.923 16.682 21.114C18.4029 21.4463 19.6678 21.156 20.4121 20.4118C21.3376 19.4862 21.5542 17.7414 20.7733 15.3986C20.5653 14.7745 20.2909 14.125 19.9533 13.4617Z" clip-rule="evenodd"></path><path fill="url(#paint1_linear_2461_13113)" fill-rule="evenodd" d="M12.0003 10.2498C11.0338 10.2498 10.2503 11.0333 10.2503 11.9998C10.2503 12.9663 11.0338 13.7498 12.0003 13.7498C12.9668 13.7498 13.7503 12.9663 13.7503 11.9998C13.7503 11.0333 12.9668 10.2498 12.0003 10.2498ZM8.75027 11.9998C8.75027 10.2049 10.2053 8.74978 12.0003 8.74978C13.7952 8.74978 15.2503 10.2049 15.2503 11.9998C15.2503 13.7947 13.7952 15.2498 12.0003 15.2498C10.2053 15.2498 8.75027 13.7947 8.75027 11.9998Z" clip-rule="evenodd"></path><defs><linearGradient id="paint0_linear_2461_13113" x1="12" x2="12" y1="1.25" y2="22.749" gradientUnits="userSpaceOnUse"><stop stop-color="#854D9C"></stop><stop offset="1" stop-color="#CD4ED3"></stop></linearGradient><linearGradient id="paint1_linear_2461_13113" x1="12" x2="12" y1="1.25" y2="22.749" gradientUnits="userSpaceOnUse"><stop stop-color="#854D9C"></stop><stop offset="1" stop-color="#CD4ED3"></stop></linearGradient></defs></svg>