<svg xmlns="http://www.w3.org/2000/svg" width="16" height="16" id="calender"><path fill="#c2e4f8" d="M.94.917h11.183v1.172H.94zM15.555 11.58a4 4 0 0 1-4 4 4 4 0 0 1-4-4 4 4 0 0 1 4-4 4 4 0 0 1 4 4z"></path><path fill="#249fe6" d="M.5 1036.362a.5.5 0 0 0-.5.5v12a.5.5 0 0 0 .5.5h5.703c-.114-.316-.161-.656-.202-1H1v-11h11v5.002c.344.04.684.088 1 .2v-5.702a.5.5 0 0 0-.5-.5z" color="#000" font-family="sans-serif" font-weight="400" overflow="visible" style="line-height:normal;text-indent:0;text-align:start;text-decoration-line:none;text-decoration-style:solid;text-decoration-color:#000;text-transform:none;block-progression:tb;isolation:auto;mix-blend-mode:normal" transform="translate(0 -1036.362)"></path><path fill="#249fe6" fill-rule="evenodd" style="line-height:normal;text-indent:0;text-align:start;text-decoration-line:none;text-decoration-style:solid;text-decoration-color:#000;text-transform:none;block-progression:tb;isolation:auto;mix-blend-mode:normal" d="M11.494 1045.361a.5.5 0 0 0-.494.508v1.992a.5.5 0 0 0 .5.5h1.79a.5.5 0 1 0 0-1H12v-1.492a.5.5 0 0 0-.506-.508z" color="#000" font-family="sans-serif" font-weight="400" overflow="visible" transform="translate(0 -1036.362)"></path><path fill="#249fe6" d="M11.5 1043.362c-2.482 0-4.5 2.02-4.5 4.501 0 2.48 2.018 4.5 4.5 4.5 2.48 0 4.5-2.02 4.5-4.5s-2.02-4.5-4.5-4.5zm0 .818a3.677 3.677 0 0 1 3.682 3.683 3.676 3.676 0 0 1-3.683 3.681 3.674 3.674 0 0 1-3.681-3.681 3.676 3.676 0 0 1 3.681-3.683z" color="#000" font-family="sans-serif" font-weight="400" overflow="visible" style="line-height:normal;text-indent:0;text-align:start;text-decoration-line:none;text-decoration-style:solid;text-decoration-color:#000;text-transform:none;block-progression:tb;isolation:auto;mix-blend-mode:normal" transform="translate(0 -1036.362)"></path><path fill="#249fe6" fill-rule="evenodd" style="line-height:normal;text-indent:0;text-align:start;text-decoration-line:none;text-decoration-style:solid;text-decoration-color:#000;text-transform:none;block-progression:tb;isolation:auto;mix-blend-mode:normal" d="M.5 1038.361v1h12v-1H.5z" color="#000" font-family="sans-serif" font-weight="400" overflow="visible" transform="translate(0 -1036.362)"></path><path fill="#249fe6" style="isolation:auto;mix-blend-mode:normal" d="M2 1040.362h1v1H2zm2 0h1v1H4zm2 0h1v1H6zm2 0h1v1H8zm2.01 0h1v1h-1zm-8.01 2h1v1H2zm2 0h1v1H4zm2 0h1v1H6zm-4 2h1v1H2zm2 0h1v1H4zm-2 2h1v1H2zm2 0h1v1H4zm3-1.476v-.524H6v1h.678c.09-.171.215-.316.322-.476zm1-2.524v1h.521c.161-.107.307-.232.479-.322v-.678H8z" color="#000" overflow="visible" transform="translate(0 -1036.362)"></path></svg>