<svg width="24" height="24" viewBox="0 0 24 24" fill="none" xmlns="http://www.w3.org/2000/svg">
<path d="M24 11.9963C24 9.70336 23.3426 7.45845 22.1058 5.52744C20.869 3.59644 19.1045 2.06024 17.0213 1.10077C14.9382 0.1413 12.6236 -0.201239 10.3517 0.113718C8.07985 0.428674 5.94585 1.38793 4.20246 2.87789C2.45906 4.36784 1.17931 6.32608 0.514749 8.52068C-0.14981 10.7153 -0.171331 13.0543 0.452735 15.2608C1.0768 17.4672 2.32031 19.4486 4.03599 20.9704C5.75168 22.4922 7.86766 23.4905 10.1334 23.8472V15.4709H7.0809V11.9963H10.128V9.35174C10.128 6.34636 11.92 4.68461 14.6614 4.68461C15.5613 4.6972 16.4591 4.77561 17.3476 4.91921V7.87126H15.8347C14.3431 7.87126 13.8791 8.79722 13.8791 9.74451V11.9963H17.2071L16.6738 15.4638H13.8756V23.8472C16.698 23.4 19.2682 21.9608 21.1241 19.7885C22.9799 17.6161 23.9997 14.8531 24 11.9963Z" fill="#FF712D"/>
<path d="M16.6703 15.4709L17.2036 12.0034H13.8756V9.74447C13.8756 8.79719 14.3396 7.87123 15.8311 7.87123H17.344V4.91917C16.4555 4.77557 15.5577 4.69716 14.6578 4.68457C11.9165 4.68457 10.1245 6.34632 10.1245 9.3517V11.9963H7.0809V15.4709H10.128V23.8543C11.3708 24.0486 12.6363 24.0486 13.8791 23.8543V15.4709H16.6703Z" fill="white"/>
</svg>
