<svg width="24" height="24" viewBox="0 0 24 24" fill="none" xmlns="http://www.w3.org/2000/svg">
<path d="M12.0001 24C18.6275 24 24.0001 18.6274 24.0001 12C24.0001 5.37258 18.6275 0 12.0001 0C5.37264 0 6.10352e-05 5.37258 6.10352e-05 12C6.10352e-05 18.6274 5.37264 24 12.0001 24Z" fill="#FF712D"/>
<path d="M12.9281 10.3642C13.1254 10.142 13.2836 9.91624 13.4899 9.72602C13.7824 9.44082 14.1288 9.21663 14.5087 9.06648C14.8887 8.91632 15.2947 8.84319 15.7032 8.85135C16.1739 8.84323 16.6435 8.90007 17.0987 9.02024C18.1405 9.32246 18.745 10.0389 19.0347 11.0558C19.2268 11.8178 19.3135 12.6026 19.2925 13.3882C19.2925 15.0469 19.2925 16.7038 19.2925 18.366C19.2925 18.5207 19.2499 18.5616 19.097 18.5598C18.2413 18.5527 17.3873 18.5527 16.5352 18.5598C16.3841 18.5598 16.3574 18.5153 16.3574 18.382C16.3574 16.8045 16.3574 15.227 16.3574 13.6496C16.3663 13.2533 16.3196 12.8578 16.2188 12.4745C16.0143 11.7633 15.5076 11.4078 14.7663 11.4451C13.7547 11.4985 13.2267 12.0016 13.0987 13.0309C13.0674 13.2762 13.0519 13.5232 13.0525 13.7705C13.0525 15.3047 13.0525 16.8389 13.0525 18.3731C13.0525 18.526 13.0134 18.5705 12.857 18.5687C11.9983 18.5687 11.1379 18.5687 10.2774 18.5687C10.1388 18.5687 10.0996 18.5331 10.0996 18.3909C10.0996 15.3545 10.0996 12.3174 10.0996 9.27979C10.0996 9.12868 10.1476 9.10201 10.2899 9.10201C11.1076 9.10912 11.9248 9.10912 12.7414 9.10201C12.8908 9.10201 12.9299 9.15001 12.9192 9.29224C12.9228 9.63713 12.9281 9.99979 12.9281 10.3642Z" fill="white"/>
<path d="M8.24897 13.8352C8.24897 15.3374 8.24897 16.8396 8.24897 18.3418C8.24897 18.509 8.20808 18.5605 8.03563 18.5587C7.18052 18.5481 6.32719 18.5587 5.47386 18.5587C5.33697 18.5587 5.29608 18.525 5.29608 18.381C5.29608 15.3374 5.29608 12.295 5.29608 9.25385C5.29608 9.12763 5.32808 9.07607 5.46141 9.08496C6.32719 9.08496 7.19297 9.08496 8.05874 9.08496C8.22585 9.08496 8.24719 9.14718 8.24719 9.29118C8.246 10.8058 8.2466 12.3205 8.24897 13.8352Z" fill="white"/>
<path d="M8.48361 6.071C8.48537 6.40872 8.38678 6.73936 8.20036 7.02097C8.01394 7.30258 7.74808 7.52248 7.43651 7.65278C7.12493 7.78307 6.78169 7.8179 6.45029 7.75284C6.11889 7.68777 5.81428 7.52575 5.57509 7.28732C5.33591 7.04889 5.17294 6.74479 5.10683 6.4136C5.04073 6.08241 5.07447 5.73904 5.20379 5.42706C5.33311 5.11508 5.55218 4.84853 5.83321 4.66122C6.11423 4.47392 6.44455 4.3743 6.78228 4.375C7.23186 4.37732 7.66245 4.55659 7.98085 4.87399C8.29926 5.1914 8.47988 5.62142 8.48361 6.071Z" fill="white"/>
</svg>
