<svg xmlns="http://www.w3.org/2000/svg" data-name="Layer 1" viewBox="0 0 500 500" id="online-class"><rect width="337.74" height="214.7" x="81.13" y="156.99" fill="#2d393d"></rect><path fill="#3c4951" d="M58.8,371.69H441.2a0,0,0,0,1,0,0v19.48A16.87,16.87,0,0,1,424.33,408H75.67A16.87,16.87,0,0,1,58.8,391.17V371.69A0,0,0,0,1,58.8,371.69Z"></path><rect width="306.81" height="187.34" x="96.6" y="170.67" fill="#fff"></rect><path fill="#2d393d" d="M213,371.69H287a0,0,0,0,1,0,0v5.38a6.15,6.15,0,0,1-6.15,6.15H219.18a6.15,6.15,0,0,1-6.15-6.15v-5.38A0,0,0,0,1,213,371.69Z"></path><path fill="#7a4d38" d="M303.34,267.4H194.54v-121a54.4,54.4,0,1,1,108.8,0Z"></path><path fill="#ffbc00" d="M341.25,358H158.75V299.6a56.94,56.94,0,0,1,56.94-57h68.62a56.94,56.94,0,0,1,56.94,57Z"></path><path fill="#d88061" d="M248.81,262a20.3,20.3,0,0,1-20.3-20.3V213.89h40.6v27.76A20.3,20.3,0,0,1,248.81,262Z"></path><path fill="#ffb380" d="M311.21,184.1a18.74,18.74,0,0,0-16.72-18.63v-15.6L237.15,135,203.4,149.87v15.6c-22.26,3-22.14,34.48.13,37.29,2.74,49.74,88.09,49.73,90.82,0A18.75,18.75,0,0,0,311.21,184.1Z"></path><path fill="#7a4d38" d="M203.4,165.47s24.95-6.39,33.28-28.14c0,0,20.25,28.25,57.81,28.14l3.88-41.57-96.74,1.82Z"></path><polygon fill="#ff8b00" points="295.27 358.01 303.34 294.73 304.23 358.01 295.27 358.01"></polygon><polygon fill="#ff8b00" points="204.73 358.01 196.66 294.73 195.77 358.01 204.73 358.01"></polygon></svg>