<svg xmlns="http://www.w3.org/2000/svg" enable-background="new 0 0 512 512" viewBox="0 0 512 512" id="podium"><path d="M504,221.281H338.667c-4.418,0-8,3.582-8,8v50.177H173.333c-4.418,0-8,3.582-8,8v46.388H8c-4.418,0-8,3.582-8,8V500.03
	c0,4.418,3.582,8,8,8h496c4.418,0,8-3.582,8-8V229.281C512,224.863,508.418,221.281,504,221.281z M16,349.847h149.333V492.03H16
	V349.847z M181.333,295.458h149.334V492.03H181.333V295.458z M496,492.03H346.667V237.281H496V492.03z M367.787,179.104h107.094
	c9.348,0,16.953-7.605,16.953-16.953v-47.822c0-15.883-11.867-27.935-32.558-33.067c-5.723-1.42-11.441-2.504-17.148-3.289
	c9.264-8.149,15.331-21.573,15.331-36.735c0-22.639-14.18-37.268-36.125-37.268s-36.126,14.628-36.126,37.268
	c0,15.129,6.04,28.526,15.27,36.68c-5.753,0.791-11.475,1.9-17.153,3.36c-20.647,5.309-32.49,17.355-32.49,33.051v47.822
	C350.834,171.499,358.439,179.104,367.787,179.104z M421.334,19.97c9.181,0,20.125,3.689,20.125,21.268
	c0,15.701-9.216,28.965-20.125,28.965s-20.126-13.265-20.126-28.965C401.208,23.659,412.152,19.97,421.334,19.97z M366.834,114.329
	c0-10.158,11.134-15.153,20.475-17.555c11.075-2.848,22.337-4.271,33.705-4.271c11.39,0,22.887,1.429,34.411,4.288
	c7.622,1.891,20.409,6.683,20.409,17.538v47.822c0,0.517-0.437,0.953-0.953,0.953h-11.448V127.38c0-4.418-3.582-8-8-8s-8,3.582-8,8
	v35.724h-52.199V127.38c0-4.418-3.582-8-8-8s-8,3.582-8,8v35.724h-11.446c-0.517,0-0.953-0.436-0.953-0.953V114.329z
	 M202.453,237.281h107.094c9.348,0,16.953-7.605,16.953-16.953v-47.822c0-15.883-11.867-27.935-32.558-33.067
	c-5.723-1.42-11.441-2.504-17.149-3.289c9.265-8.149,15.332-21.572,15.332-36.735c0-22.639-14.18-37.268-36.125-37.268
	s-36.125,14.628-36.125,37.268c0,15.129,6.04,28.526,15.27,36.68c-5.752,0.791-11.475,1.9-17.153,3.36
	c-20.648,5.309-32.491,17.355-32.491,33.051v47.822C185.5,229.676,193.105,237.281,202.453,237.281z M256,78.147
	c9.181,0,20.125,3.689,20.125,21.268c0,15.701-9.216,28.965-20.125,28.965s-20.125-13.264-20.125-28.965
	C235.875,81.836,246.819,78.147,256,78.147z M201.5,172.506c0-10.158,11.135-15.153,20.476-17.555
	c11.075-2.848,22.336-4.272,33.704-4.272c11.39,0,22.887,1.43,34.411,4.289c7.622,1.891,20.409,6.683,20.409,17.538v47.822
	c0,0.517-0.437,0.953-0.953,0.953h-11.448v-35.724c0-4.418-3.582-8-8-8s-8,3.582-8,8v35.724H229.9v-35.724c0-4.418-3.582-8-8-8
	s-8,3.582-8,8v35.724h-11.447c-0.517,0-0.953-0.436-0.953-0.953V172.506z M37.12,295.458h107.094
	c9.348,0,16.953-7.605,16.953-16.953v-47.822c0-15.883-11.867-27.936-32.558-33.068c-5.723-1.42-11.441-2.504-17.148-3.289
	c9.264-8.149,15.331-21.572,15.331-36.735c0-22.639-14.18-37.268-36.125-37.268s-36.126,14.628-36.126,37.268
	c0,15.128,6.04,28.526,15.27,36.68c-5.752,0.791-11.475,1.9-17.153,3.36c-20.647,5.309-32.49,17.356-32.49,33.051v47.822
	C20.167,287.853,27.772,295.458,37.12,295.458z M90.667,136.324c9.181,0,20.125,3.689,20.125,21.268
	c0,15.701-9.216,28.965-20.125,28.965s-20.126-13.264-20.126-28.965C70.541,140.014,81.485,136.324,90.667,136.324z M36.167,230.683
	c0-10.159,11.134-15.154,20.475-17.555c11.075-2.848,22.337-4.271,33.704-4.271c11.391,0,22.888,1.429,34.412,4.288
	c7.622,1.891,20.409,6.683,20.409,17.539v47.822c0,0.517-0.437,0.953-0.953,0.953h-11.448v-35.724c0-4.418-3.582-8-8-8s-8,3.582-8,8
	v35.724H64.567v-35.724c0-4.418-3.582-8-8-8s-8,3.582-8,8v35.724H37.12c-0.517,0-0.953-0.437-0.953-0.953V230.683z"></path></svg>