<svg width="288" height="84" viewBox="0 0 288 84" fill="none" xmlns="http://www.w3.org/2000/svg">
<path fill-rule="evenodd" clip-rule="evenodd" d="M8.91303 17.645C9.87062 15.3091 11.263 13.188 13.0108 11.4027C14.7586 9.61741 16.8274 8.20291 19.0993 7.23999C21.3712 6.27706 23.8015 5.78456 26.2516 5.7906C28.7017 5.79664 31.1235 6.30109 33.3788 7.27518C35.6341 8.24927 37.6787 9.6739 39.3958 11.4677L35.7901 15.1509C34.5381 13.8431 33.0475 12.8045 31.4032 12.0943C29.7589 11.3841 27.9932 11.0163 26.2069 11.0119C24.4207 11.0075 22.6488 11.3666 20.9924 12.0686C19.3361 12.7707 17.8277 13.8019 16.5535 15.1035C15.2792 16.4051 14.264 17.9516 13.5659 19.6546C12.8677 21.3576 12.5003 23.1839 12.4845 25.029C12.4687 26.8742 12.805 28.7021 13.474 30.4085C14.143 32.1149 15.1317 33.6663 16.3836 34.9741L12.7778 38.6574C11.0607 36.8635 9.70456 34.7356 8.78694 32.3951C7.86933 30.0546 7.40817 27.5474 7.4298 25.0166C7.45144 22.4857 7.95544 19.9809 8.91303 17.645Z" fill="#E7DE00"/>
<path fill-rule="evenodd" clip-rule="evenodd" d="M59.4678 39.9665L35.5723 14.9808L39.1943 11.2886L63.0898 36.2743L59.4678 39.9665Z" fill="#E7DE00"/>
<path fill-rule="evenodd" clip-rule="evenodd" d="M64.4829 7.77899C66.7434 8.75502 68.7927 10.1825 70.5138 11.9799C72.2349 13.7774 73.5941 15.9095 74.5138 18.2547C75.4336 20.5999 75.8958 23.1121 75.8741 25.648C75.8524 28.1839 75.3473 30.6938 74.3875 33.0344C73.4277 35.3749 72.032 37.5003 70.2803 39.2892L66.7295 35.5809C68.0066 34.2767 69.0241 32.7271 69.7239 31.0207C70.4237 29.3143 70.792 27.4844 70.8078 25.6356C70.8236 23.7867 70.4866 21.9551 69.816 20.2453C69.1455 18.5355 68.1545 16.981 66.8997 15.6705C65.6449 14.3601 64.1508 13.3193 62.5028 12.6077C60.8547 11.8961 59.085 11.5276 57.2946 11.5232C55.5042 11.5188 53.7282 11.8786 52.0681 12.582C50.4079 13.2855 48.8961 14.3188 47.6189 15.623L44.0681 11.9148C45.8199 10.1259 47.8935 8.7086 50.1706 7.74374C52.4477 6.77888 54.8836 6.28539 57.3393 6.29144C59.795 6.29748 62.2224 6.80296 64.4829 7.77899Z" fill="#E7DE00"/>
<path fill-rule="evenodd" clip-rule="evenodd" d="M42.8001 60.0652L67.0306 35.3427L70.5654 39.042L46.3348 63.7646L42.8001 60.0652Z" fill="#E7DE00"/>
<path fill-rule="evenodd" clip-rule="evenodd" d="M17.0804 74.9898C14.8199 74.0138 12.7706 72.5863 11.0495 70.7889C9.32841 68.9915 7.96919 66.8593 7.04946 64.5141C6.12974 62.169 5.66752 59.6567 5.68921 57.1208C5.71089 54.5849 6.21605 52.075 7.17584 49.7345C8.13564 47.3939 9.53126 45.2685 11.283 43.4797L14.8338 47.1879C13.5567 48.4921 12.5392 50.0417 11.8394 51.7481C11.1396 53.4546 10.7713 55.2844 10.7555 57.1333C10.7397 58.9821 11.0767 60.8137 11.7473 62.5235C12.4178 64.2334 13.4088 65.7879 14.6636 67.0983C15.9184 68.4088 17.4125 69.4495 19.0605 70.1611C20.7086 70.8727 22.4783 71.2412 24.2687 71.2456C26.0591 71.25 27.8351 70.8903 29.4952 70.1868C31.1554 69.4834 32.6672 68.45 33.9444 67.1458L37.4952 70.854C35.7434 72.6429 33.6698 74.0602 31.3927 75.0251C29.1156 75.99 26.6797 76.4834 24.224 76.4774C21.7683 76.4714 19.3409 75.9659 17.0804 74.9898Z" fill="#E7DE00"/>
<path fill-rule="evenodd" clip-rule="evenodd" d="M38.7622 22.705L14.5317 47.4275L10.9969 43.7281L35.2275 19.0056L38.7622 22.705Z" fill="#E7DE00"/>
<path fill-rule="evenodd" clip-rule="evenodd" d="M72.9717 66.118C72.0142 68.454 70.6218 70.5753 68.8742 72.3607C67.1265 74.1461 65.0578 75.5607 62.786 76.5236C60.5143 77.4866 58.0841 77.9792 55.6342 77.9731C53.1842 77.9671 50.7625 77.4626 48.5074 76.4885C46.2522 75.5143 44.2077 74.0896 42.4907 72.2957L46.0962 68.6122C47.3481 69.9202 48.8387 70.9589 50.4829 71.6691C52.127 72.3793 53.8926 72.7471 55.6788 72.7515C57.465 72.7559 59.2368 72.3968 60.893 71.6947C62.5493 70.9927 64.0576 69.9613 65.3317 68.6596C66.6059 67.358 67.621 65.8114 68.3191 64.1083C69.0173 62.4052 69.3847 60.5789 69.4005 58.7336C69.4162 56.8883 69.08 55.0603 68.4111 53.3538C67.7421 51.6473 66.7535 50.0958 65.5016 48.7879L69.1072 45.1045C70.8242 46.8984 72.1803 49.0265 73.0978 51.3671C74.0154 53.7077 74.4765 56.2151 74.4549 58.7461C74.4332 61.277 73.9293 63.782 72.9717 66.118Z" fill="#E7DE00"/>
<path fill-rule="evenodd" clip-rule="evenodd" d="M22.4164 43.7961L46.3118 68.7818L42.6898 72.474L18.7944 47.4883L22.4164 43.7961Z" fill="#E7DE00"/>
<path fill-rule="evenodd" clip-rule="evenodd" d="M34.6423 1.46852C36.9084 0.499005 39.3373 0 41.7901 0C44.243 0 46.6718 0.499004 48.9379 1.46852C51.2041 2.43804 53.2631 3.85908 54.9976 5.65052C56.732 7.44196 58.1078 9.5687 59.0465 11.9093C59.9852 14.2499 60.4683 16.7586 60.4683 19.2921H55.4078C55.4078 17.445 55.0556 15.616 54.3713 13.9095C53.6869 12.203 52.6838 10.6525 51.4193 9.3464C50.1548 8.04031 48.6536 7.00427 47.0014 6.29742C45.3492 5.59057 43.5784 5.22676 41.7901 5.22676C40.0018 5.22676 38.231 5.59057 36.5789 6.29742C34.9267 7.00427 33.4255 8.04031 32.1609 9.3464C30.8964 10.6525 29.8934 12.203 29.209 13.9095C28.5246 15.616 28.1724 17.445 28.1724 19.2921H23.112C23.112 16.7586 23.5951 14.2499 24.5338 11.9093C25.4724 9.5687 26.8483 7.44196 28.5827 5.65052C30.3171 3.85908 32.3762 2.43804 34.6423 1.46852Z" fill="#FFB600"/>
<path fill-rule="evenodd" clip-rule="evenodd" d="M55.3813 54.1133L55.4067 18.9637L60.4677 18.9676L60.4423 54.1172L55.3813 54.1133Z" fill="#FFB600"/>
<path fill-rule="evenodd" clip-rule="evenodd" d="M80.8141 34.8401C81.7528 37.1808 82.2359 39.6894 82.2359 42.2229C82.2359 44.7564 81.7528 47.265 80.8141 49.6057C79.8754 51.9463 78.4996 54.073 76.7652 55.8645C75.0308 57.6559 72.9717 59.0769 70.7056 60.0465C68.4394 61.016 66.0106 61.515 63.5577 61.515V56.2882C65.346 56.2882 67.1168 55.9244 68.769 55.2176C70.4212 54.5107 71.9224 53.4747 73.1869 52.1686C74.4514 50.8625 75.4545 49.3119 76.1389 47.6055C76.8232 45.899 77.1755 44.07 77.1755 42.2229C77.1755 40.3758 76.8232 38.5468 76.1389 36.8403C75.4545 35.1338 74.4514 33.5833 73.1869 32.2772C71.9224 30.9711 70.4212 29.9351 68.769 29.2282C67.1168 28.5214 65.346 28.1576 63.5577 28.1576V22.9308C66.0106 22.9308 68.4394 23.4298 70.7056 24.3993C72.9717 25.3689 75.0308 26.7899 76.7652 28.5813C78.4996 30.3728 79.8754 32.4995 80.8141 34.8401Z" fill="#FFB600"/>
<path fill-rule="evenodd" clip-rule="evenodd" d="M29.8458 56.262L63.8768 56.2883L63.873 61.515L29.842 61.4888L29.8458 56.262Z" fill="#FFB600"/>
<path fill-rule="evenodd" clip-rule="evenodd" d="M1.42179 48.219C0.483125 45.8784 1.077e-07 43.3698 0 40.8363C-1.07699e-07 38.3028 0.483124 35.7942 1.42179 33.4535C2.36045 31.1129 3.73627 28.9862 5.4707 27.1947C7.20513 25.4033 9.26419 23.9823 11.5303 23.0127C13.7965 22.0432 16.2253 21.5442 18.6781 21.5442L18.6781 26.771C16.8898 26.771 15.119 27.1348 13.4669 27.8416C11.8147 28.5485 10.3135 29.5845 9.04897 30.8906C7.78444 32.1967 6.78137 33.7472 6.09702 35.4537C5.41266 37.1602 5.06043 38.9892 5.06043 40.8363C5.06043 42.6834 5.41266 44.5124 6.09702 46.2189C6.78137 47.9253 7.78445 49.4759 9.04897 50.782C10.3135 52.0881 11.8147 53.1241 13.4669 53.8309C15.1191 54.5378 16.8898 54.9016 18.6781 54.9016L18.6781 60.1284C16.2253 60.1284 13.7965 59.6294 11.5303 58.6598C9.26419 57.6903 7.20513 56.2693 5.4707 54.4778C3.73628 52.6864 2.36045 50.5597 1.42179 48.219Z" fill="#FFB600"/>
<path fill-rule="evenodd" clip-rule="evenodd" d="M52.3897 26.7968L18.3588 26.7705L18.3625 21.5437L52.3935 21.57L52.3897 26.7968Z" fill="#FFB600"/>
<path fill-rule="evenodd" clip-rule="evenodd" d="M47.1472 82.5315C44.8811 83.501 42.4522 84 39.9994 84C37.5465 84 35.1177 83.501 32.8516 82.5315C30.5854 81.562 28.5264 80.1409 26.7919 78.3495C25.0575 76.558 23.6817 74.4313 22.743 72.0907C21.8044 69.7501 21.3212 67.2414 21.3212 64.7079L26.3817 64.7079C26.3817 66.555 26.7339 68.384 27.4182 70.0905C28.1026 71.797 29.1057 73.3475 30.3702 74.6536C31.6347 75.9597 33.1359 76.9957 34.7881 77.7026C36.4403 78.4094 38.2111 78.7732 39.9994 78.7732C41.7877 78.7732 43.5585 78.4094 45.2106 77.7026C46.8628 76.9957 48.364 75.9597 49.6286 74.6536C50.8931 73.3475 51.8962 71.797 52.5805 70.0905C53.2649 68.384 53.6171 66.555 53.6171 64.7079L58.6775 64.7079C58.6775 67.2414 58.1944 69.7501 57.2557 72.0907C56.3171 74.4313 54.9412 76.558 53.2068 78.3495C51.4724 80.1409 49.4133 81.562 47.1472 82.5315Z" fill="#FFB600"/>
<path fill-rule="evenodd" clip-rule="evenodd" d="M26.4071 29.8865L26.3816 65.0361L21.3206 65.0322L21.3461 29.8826L26.4071 29.8865Z" fill="#FFB600"/>
<path d="M134.89 58.8228C134.89 61.5254 133.258 63.6007 129.994 65.0485C127.384 66.2068 124.586 66.7859 121.602 66.7859C118.852 66.7859 115.844 66.2068 112.581 65.0485C108.385 63.5524 106.287 61.6943 106.287 59.4743C106.287 58.2678 106.846 57.6645 107.965 57.6645C108.851 57.6645 109.877 58.1954 111.042 59.2571C112.674 60.8498 113.56 61.6943 113.7 61.7909C115.471 62.9974 118.339 63.6007 122.302 63.6007C127.617 63.6007 130.274 62.1528 130.274 59.2571C130.274 57.9058 129.132 56.2408 126.847 54.262C126.474 53.9725 124.726 52.6694 121.602 50.3529C116.614 46.685 113.467 44.1271 112.161 42.6793C109.224 39.4457 107.755 35.6813 107.755 31.3861C107.755 27.4286 108.851 23.809 111.042 20.5272C113.467 16.8593 116.52 15.0254 120.204 15.0254C123.327 15.0254 126.008 16.4008 128.246 19.1517C130.204 21.5648 131.486 24.4846 132.092 27.9112C132.139 29.0695 132.326 30.831 132.652 33.1959C133.025 34.9333 133.211 35.802 133.211 35.802C133.211 39.6629 132.302 41.5934 130.484 41.5934C130.018 41.5934 129.528 41.3279 129.015 40.7971C128.549 40.2179 128.316 39.687 128.316 39.2044C128.316 38.5288 128.456 37.5394 128.736 36.2363C129.015 34.9333 129.155 33.9439 129.155 33.2683C129.155 29.9382 128.642 26.9942 127.617 24.4364C126.265 20.9615 124.213 19.2241 121.462 19.2241C118.712 19.2241 116.404 20.4789 114.539 22.9885C112.721 25.4499 111.811 28.1525 111.811 31.0965C111.811 35.0539 113.816 38.8183 117.826 42.3897C121.509 45.1406 125.216 47.9156 128.945 50.7148C132.908 53.707 134.89 56.4097 134.89 58.8228Z" fill="#171717"/>
<path d="M159.802 67.0755C159.802 67.7512 159.289 68.089 158.263 68.089C157.144 68.089 156.468 67.6064 156.235 66.6411C156.188 66.4964 156.165 65.5553 156.165 63.8178C156.165 63.3352 156.095 62.9491 155.955 62.6596C153.344 64.6383 150.524 65.6277 147.493 65.6277C145.395 65.6277 143.367 65.0244 141.409 63.8178C139.171 62.4665 138.052 60.7774 138.052 58.7504C138.052 56.7716 139.381 54.8412 142.038 52.959C144.463 51.2216 146.701 50.3529 148.752 50.3529H155.676C155.955 50.0633 156.095 49.5565 156.095 48.8326C156.095 45.5991 155.839 43.1619 155.326 41.521C154.487 38.7701 152.832 37.3946 150.361 37.3946C148.589 37.3946 146.957 38.5529 145.465 40.8695C144.113 42.993 143.437 45.02 143.437 46.9504C143.437 47.0469 143.437 47.1917 143.437 47.3848C143.437 47.5778 143.437 47.6985 143.437 47.7467C143.437 48.1328 143.251 48.3259 142.878 48.3259C142.411 48.3259 141.899 48.0363 141.339 47.4572C140.78 46.878 140.5 46.3713 140.5 45.9369C140.5 44.5856 140.896 42.8964 141.689 40.8695C142.481 38.7942 143.344 37.2257 144.276 36.164C145.442 34.8609 146.887 34.2094 148.612 34.2094C151.27 34.2094 153.717 35.0781 155.955 36.8155C158.333 38.6977 159.545 40.966 159.592 43.6204L159.802 67.0755ZM156.095 55.5651C156.095 53.6347 154.65 52.6694 151.759 52.6694C149.475 52.6694 147.47 53.0796 145.745 53.9001C143.554 54.9618 142.458 56.5545 142.458 58.678C142.458 59.981 143.041 60.9945 144.206 61.7185C145.185 62.3459 146.351 62.6596 147.703 62.6596C149.708 62.6596 151.596 61.9839 153.368 60.6326C155.186 59.2813 156.095 57.5921 156.095 55.5651Z" fill="#171717"/>
<path d="M187.048 65.3381C186.768 65.869 186.372 66.1344 185.859 66.1344C185.346 66.1344 184.507 65.7966 183.341 65.1209V64.5418C183.341 64.1074 183.364 63.4559 183.411 62.5872C183.458 61.7185 183.481 61.0911 183.481 60.705C183.481 44.6821 181.546 36.6707 177.676 36.6707C176.464 36.6707 175.159 37.5877 173.76 39.4216C170.217 43.9582 168.445 49.6772 168.445 56.5786C168.445 57.4956 168.585 58.8469 168.865 60.6326C169.191 62.37 169.354 63.6972 169.354 64.6142C169.354 65.3381 168.865 65.7001 167.886 65.7001C166.021 65.7001 165.088 64.1798 165.088 61.1393V44.7063C165.088 44.2719 165.135 43.6445 165.228 42.8241C165.321 42.0036 165.368 41.3762 165.368 40.9418C165.368 40.3144 165.275 39.3975 165.088 38.1909C164.948 36.9844 164.879 36.0916 164.879 35.5124C164.879 35.1263 165.158 34.692 165.718 34.2094C166.324 33.6785 166.79 33.413 167.116 33.413C167.723 33.413 168.282 33.7509 168.795 34.4265C168.655 37.5635 168.585 39.3975 168.585 39.9284C168.585 40.6523 168.608 41.3521 168.655 42.0277C169.075 41.883 169.634 41.0866 170.333 39.6388C171.219 37.8048 171.965 36.55 172.571 35.8744C173.69 34.5231 174.972 33.8474 176.418 33.8474C176.977 33.8474 177.816 34.0646 178.935 34.4989C181.453 35.4642 183.248 37.0568 184.32 39.2768C186.139 43.0895 187.048 48.1328 187.048 54.4068V65.3381Z" fill="#171717"/>
<path d="M212.727 19.007C212.727 20.117 212.587 21.5407 212.307 23.2781C211.981 25.5464 211.771 26.9701 211.678 27.5493C211.538 29.0454 211.305 34.0163 210.978 42.4621C210.699 50.1839 210.559 54.4551 210.559 55.2755C210.559 60.4395 211.002 64.0833 211.887 66.2068C211.561 66.7377 211.141 67.0031 210.629 67.0031C210.162 67.0031 209.626 66.7618 209.02 66.2792C208.461 65.7966 208.111 65.3139 207.971 64.8313C207.971 63.8661 207.831 62.3941 207.552 60.4154C204.801 64.035 202.167 65.8448 199.649 65.8448C196.618 65.8448 194.287 64.6624 192.656 62.2976C191.257 60.2706 190.558 57.5921 190.558 54.262C190.558 50.2081 191.28 46.0093 192.725 41.6658C194.59 35.9709 197.061 33.1235 200.139 33.1235C201.444 33.1235 202.773 33.6302 204.125 34.6437C204.404 34.8368 205.5 35.8503 207.412 37.6842C207.878 34.4024 208.111 27.2114 208.111 16.1113C208.437 15.7734 208.88 15.6045 209.44 15.6045C210.326 15.6045 211.095 15.9423 211.748 16.618C212.4 17.2937 212.727 18.09 212.727 19.007ZM207.482 45.7197C207.482 43.5962 207.015 41.6899 206.083 40.0007C204.964 37.9738 203.449 36.9603 201.537 36.9603C199.206 36.9603 197.341 39.4216 195.942 44.3443C194.823 48.0604 194.264 51.5594 194.264 54.8412C194.264 56.9647 194.59 58.7986 195.243 60.343C196.129 62.37 197.458 63.3835 199.229 63.3835C202.12 63.3835 204.311 61.0669 205.803 56.4338C206.922 53.1038 207.482 49.5324 207.482 45.7197Z" fill="#171717"/>
<path d="M236.657 48.905C236.657 53.1038 236.098 56.6269 234.979 59.4743C233.44 63.4318 230.923 65.4105 227.426 65.4105C226.54 65.4105 225.351 65.145 223.859 64.6142C222.694 64.1798 221.528 63.7454 220.363 63.3111C220.269 63.6007 220.223 63.9144 220.223 64.2522C220.223 64.4935 220.246 64.8313 220.293 65.2657C220.339 65.7483 220.363 66.1103 220.363 66.3516C220.363 67.0755 219.966 67.4375 219.174 67.4375C218.381 67.4375 217.728 67.0996 217.216 66.424C216.889 66.0861 216.633 64.6624 216.446 62.1528C216.306 60.1741 216.236 58.6297 216.236 57.5197V57.0854L217.565 16.6904H218.544C219.197 16.6904 219.803 17.0524 220.363 17.7763C220.969 18.4519 221.272 19.1517 221.272 19.8757C221.272 21.6613 221.039 24.3157 220.572 27.8388C220.153 31.3619 219.943 34.0163 219.943 35.802C219.943 35.995 219.943 36.912 219.943 38.5529C220.316 38.4081 220.782 37.8531 221.342 36.8879C222.041 35.6813 222.647 34.8368 223.16 34.3541C224.092 33.4854 225.235 33.0511 226.587 33.0511C228.871 33.0511 230.946 34.0163 232.811 35.9468C234.489 37.6842 235.608 39.7836 236.168 42.2449C236.494 43.8858 236.657 46.1058 236.657 48.905ZM232.951 49.3394C232.951 46.3471 232.648 43.7652 232.042 41.5934C231.156 38.2151 229.664 36.5259 227.566 36.5259C225.002 36.5259 222.974 38.4805 221.482 42.3897C220.316 45.4784 219.733 48.5913 219.733 51.7283C219.733 54.5275 220.199 56.9164 221.132 58.8952C222.297 61.5496 224.069 62.8767 226.447 62.8767C228.825 62.8767 230.596 61.1393 231.762 57.6645C232.554 55.2031 232.951 52.4281 232.951 49.3394Z" fill="#171717"/>
<path d="M262.336 50.7148C262.336 54.8653 261.45 58.4849 259.679 61.5737C257.581 65.2898 254.667 67.1479 250.937 67.1479C247.161 67.1479 244.34 65.6277 242.475 62.5872C240.936 60.0776 240.167 56.7475 240.167 52.597C240.167 48.4948 241.053 44.4649 242.825 40.5075C245.063 35.6331 247.907 33.1959 251.357 33.1959C252.242 33.1959 253.501 33.7267 255.133 34.7885C259.935 37.8772 262.336 43.186 262.336 50.7148ZM258.979 50.6424C258.979 47.5537 258.583 44.7786 257.791 42.3173C256.625 38.8907 254.83 37.1774 252.406 37.1774C249.608 37.1774 247.417 39.0838 245.832 42.8964C244.62 45.8404 244.014 49.0015 244.014 52.3798C244.014 55.4203 244.433 57.9782 245.272 60.0534C246.485 62.9009 248.373 64.3246 250.937 64.3246C253.734 64.3246 255.856 62.6837 257.301 59.4019C258.42 56.844 258.979 53.9242 258.979 50.6424Z" fill="#171717"/>
<path d="M288 63.7454C288 64.2281 287.65 64.6383 286.951 64.9761C286.298 65.314 285.692 65.4829 285.133 65.4829C283.268 65.4829 281.17 63.8178 278.839 60.4878C277.207 58.0265 275.598 55.5651 274.013 53.1038C271.402 55.9029 268.232 61.3806 264.502 69.5368C262.637 69.1025 261.705 68.089 261.705 66.4964C261.705 65.6277 263.43 62.7078 266.88 57.7369C270.377 52.7659 272.125 50.1357 272.125 49.8461C272.125 49.3635 271.006 47.24 268.768 43.4756C266.623 39.9042 265.225 37.7325 264.572 36.9603C265.038 35.6572 265.994 35.0057 267.439 35.0057C268.232 35.0057 268.955 35.3918 269.607 36.164C269.654 36.3087 270.143 37.4429 271.076 39.5664C272.055 41.9795 273.174 44.2719 274.433 46.4437C276.204 44.1271 277.976 41.8347 279.748 39.5664C282.592 35.8985 284.363 34.0646 285.063 34.0646C285.576 34.0646 286.019 34.3059 286.392 34.7885C286.765 35.2229 286.951 35.7055 286.951 36.2363C286.951 36.6224 285.179 38.7459 281.636 42.6069C278.093 46.4678 276.321 48.8085 276.321 49.6289C276.321 50.5942 277.836 53.0555 280.867 57.013C283.944 60.9704 285.902 62.9491 286.741 62.9491C286.974 62.9491 287.394 62.8767 288 62.732V63.7454Z" fill="#171717"/>
</svg>
