<svg xmlns="http://www.w3.org/2000/svg" data-name="Layer 1" viewBox="0 0 32 32" id="successful-booking"><path fill="#787681" d="M2.5 4.5h27v20h-27z"></path><path fill="#57565c" d="M28.5 4.5h1v20h-1z"></path><path fill="#52bbe9" d="M4.5 6.5h23v16h-23z"></path><path fill="#1cabe1" d="M26.5 6.5h1v16h-1z"></path><path fill="#aeadb3" d="M.5 24.5h31v4H.5z"></path><path fill="#8b8893" d="M30.5 24.5h1v4h-1z"></path><path fill="#fff" d="M17.5 26.5h-3l-1-2h5l-1 2z"></path><path fill="#fee27d" d="M22.5 14.5a1 1 0 0 1 1-1v-3h-15v3a1 1 0 0 1 0 2v3h15v-3a1 1 0 0 1-1-1Z"></path><path fill="#fddd5a" d="M23.5 13.5v-3h-1v3a1 1 0 0 0 0 2v3h1v-3a1 1 0 0 1 0-2Z"></path><path fill="#fff" d="m15.5 17.06-2.35-2.36.7-.7 1.65 1.64 3.62-3.7.71.7-4.33 4.42z"></path><path d="m19.83 12.64-.71-.7-3.62 3.7L13.85 14l-.7.7 2.35 2.36ZM4 23h24V6H4ZM5 7h22v15H5Zm25 17V4H2v20H0v5h32v-5ZM3 5h26v19H3Zm14.69 20-.5 1h-2.38l-.5-1ZM31 28H1v-3h12.19l1 2h3.62l1-2H31ZM8 14h.5a.5.5 0 0 1 0 1H8v4h16v-4h-.5a.5.5 0 0 1 0-1h.5v-4H8Zm1-3h14v2.09a1.49 1.49 0 0 0 0 2.82V18H9v-2.09a1.49 1.49 0 0 0 0-2.82Z"></path></svg>