<svg xmlns="http://www.w3.org/2000/svg" data-name="Layer 1" viewBox="0 0 512 512" id="teacher"><path fill="#343c4a" d="M364.292 342.214H86.768a280.887 280.887 0 0 0 31.07-86.292 279.946 279.946 0 0 0 3.93-69.065V107.26a103.762 103.762 0 1 1 207.524 0v65.596a284.745 284.745 0 0 0 35 169.357Z"></path><path fill="#ffaedb" d="M417.09 501.999V397.302a60 60 0 0 0-33.656-53.907l-102.824-50.25a20 20 0 0 1-11.219-17.968v-34.039h-87.722v34.039a20 20 0 0 1-11.219 17.969l-102.824 50.25a60 60 0 0 0-33.656 53.906V502a10 10 0 0 0 10 10h363.12a10 10 0 0 0 10-10Z"></path><path fill="#f9beac" d="M280.61 293.146a20 20 0 0 1-11.219-17.97v-34.038h-87.722v34.039a20 20 0 0 1-11.219 17.969l55.08 43.345Z"></path><path fill="#e58a7b" d="M269.391 275.177v-34.039h-87.723v32.157a80.114 80.114 0 0 0 57.862 24.62 80.005 80.005 0 0 0 35.878-8.455 19.988 19.988 0 0 1-6.017-14.283Z"></path><path fill="#f9beac" d="M145.157 196.543V136.45a16.903 16.903 0 0 1 16.375-16.907 198.845 198.845 0 0 0 51.274-8.342 198.84 198.84 0 0 0 48.617-22.148 5.98 5.98 0 0 1 8.067 1.638 81.334 81.334 0 0 0 27.633 24.56 16.86 16.86 0 0 1 8.78 14.83v66.46a80.372 80.372 0 0 1-80.373 80.373 80.372 80.372 0 0 1-80.373-80.372Z"></path><path fill="#e58a7b" d="M225.532 256.625a36.925 36.925 0 0 1-15.721-3.537 3.5 3.5 0 1 1 2.998-6.325 29.694 29.694 0 0 0 25.441 0 3.5 3.5 0 0 1 2.998 6.325 36.952 36.952 0 0 1-15.606 3.537zm12.702-45.457v6.414a12.701 12.701 0 0 1-12.701 12.7h-.006a12.701 12.701 0 0 1-12.702-12.7v-6.414a3 3 0 0 1 3-3h19.41a3 3 0 0 1 3 3z"></path><circle cx="225.53" cy="137.999" r="3.5" fill="#d34342"></circle><path fill="#e58a7b" d="M305.902 192.42v-41.049h16.39a7 7 0 0 1 7 7v10.66a23.39 23.39 0 0 1-23.39 23.39ZM145.156 192.421a23.39 23.39 0 0 1-23.39-23.39v-10.66a7 7 0 0 1 7-7h16.39v41.05Z"></path><path fill="#e57fbc" d="m272.638 343.262 15.135-46.616-7.163-3.5a19.958 19.958 0 0 1-6.928-5.61l-48.152 48.955 27.218 14.842a13.911 13.911 0 0 0 19.89-8.071Z"></path><path fill="#e57fbc" d="m163.25 296.665 15.01 46.631a13.912 13.912 0 0 0 19.905 8.117l27.366-14.922-48.172-48.93a19.963 19.963 0 0 1-6.91 5.585Z"></path><circle cx="225.53" cy="381.499" r="8" fill="#e57fbc"></circle><circle cx="225.53" cy="430.499" r="8" fill="#e57fbc"></circle><circle cx="225.53" cy="479.499" r="8" fill="#e57fbc"></circle><path fill="#596381" d="M234.737 165.491h-18.414a3.5 3.5 0 0 1 0-7h18.414a3.5 3.5 0 1 1 0 7Z"></path><rect width="175.628" height="175.628" x="302.402" y="336.371" fill="#f9f7f8" rx="15"></rect><path fill="#343c4a" d="M376.845 413.687a3.5 3.5 0 0 1-3.275-2.266l-15.88-42.078-16.03 42.089a3.5 3.5 0 1 1-6.54-2.493l18.289-48.02a4.617 4.617 0 0 1 4.288-2.939h.005a4.587 4.587 0 0 1 4.256 2.851c.014.032.027.065.039.098l18.122 48.021a3.503 3.503 0 0 1-3.274 4.737Z"></path><path fill="#343c4a" d="M371.233 401.726h-27.139a3.5 3.5 0 0 1 0-7h27.139a3.5 3.5 0 0 1 0 7zm41.08-15.002a3.5 3.5 0 0 1-3.5-3.5V360.76a3.5 3.5 0 0 1 3.5-3.5h14.147a14.707 14.707 0 1 1 0 29.414c-3.066 0-14.131.05-14.131.05zm3.5-22.464v15.449c3.524-.015 8.698-.035 10.647-.035a7.707 7.707 0 0 0 0-15.414z"></path><path fill="#343c4a" d="M412.313 412.965a3.5 3.5 0 0 1-3.5-3.5v-26.277a3.5 3.5 0 0 1 3.5-3.5h16.618a16.61 16.61 0 1 1 0 33.22c-3.587 0-16.601.057-16.602.057zm3.5-26.277v19.262c4.13-.017 10.723-.043 13.118-.043a9.61 9.61 0 1 0 0-19.22zm-1.945 105.314a3.5 3.5 0 0 1-3.5-3.5v-46.447a3.5 3.5 0 0 1 7 0v46.447a3.5 3.5 0 0 1-3.5 3.5z"></path><path fill="#343c4a" d="M413.963 492.77a3.5 3.5 0 0 1-3.5-3.488s-.061-17.129-.061-23.696c0-5.39-.034-23.573-.034-23.573a3.5 3.5 0 0 1 3.5-3.507h13.386c13.51 0 22.586 10.903 22.586 27.132 0 15.684-9.101 26.799-22.133 27.027-3.797.066-13.327.103-13.731.105zm3.411-47.264c.01 5.561.028 16.176.028 20.08 0 4.698.031 14.807.05 20.167 3.215-.017 7.82-.046 10.133-.086 8.982-.158 15.255-8.395 15.255-20.03 0-9.732-4.094-20.131-15.586-20.131zm-58.93 47.264a27.853 27.853 0 1 1 15.574-50.947 3.5 3.5 0 0 1-3.918 5.801 20.853 20.853 0 1 0-11.656 38.146 16.055 16.055 0 0 0 11.037-3.949 16.304 16.304 0 0 0 1.624-1.676 3.5 3.5 0 0 1 5.361 4.5 22.647 22.647 0 0 1-18.022 8.125z"></path><path fill="#e57fbc" d="M102.654 512a3.5 3.5 0 0 1-3.307-2.354 104.252 104.252 0 0 1-.703-65.813l2.27-7.03a56.85 56.85 0 0 0 2.75-17.454v-18.15a3.5 3.5 0 0 1 7 0v18.15a63.837 63.837 0 0 1-3.088 19.603l-2.27 7.032a97.213 97.213 0 0 0 .654 61.369 3.503 3.503 0 0 1-3.306 4.647Z"></path><path fill="#596381" d="M166.03 164.519v-2.5a6.967 6.967 0 0 1 1.557-4.398c-7.293-3.227-22.069-9.745-22.43-9.745v7.331l20.874 9.365-.001-.053zm117.442-6.898a6.967 6.967 0 0 1 1.558 4.398v2.5l-.002.053 20.874-9.365v-7.33c-.361 0-15.137 6.517-22.43 9.744z"></path><path fill="#596381" d="M190.53 199.519a28.031 28.031 0 0 1-28-28v-9.5a10.512 10.512 0 0 1 10.5-10.5h35a10.512 10.512 0 0 1 10.5 10.5v9.5a28.031 28.031 0 0 1-28 28zm-17.5-41a3.504 3.504 0 0 0-3.5 3.5v9.5a21 21 0 0 0 42 0v-9.5a3.504 3.504 0 0 0-3.5-3.5zm87.5 41a28.031 28.031 0 0 1-28-28v-9.5a10.512 10.512 0 0 1 10.5-10.5h35a10.512 10.512 0 0 1 10.5 10.5v9.5a28.031 28.031 0 0 1-28 28zm-17.5-41a3.504 3.504 0 0 0-3.5 3.5v9.5a21 21 0 0 0 42 0v-9.5a3.504 3.504 0 0 0-3.5-3.5z"></path><path fill="#343c4a" d="M260.53 179.046a3.5 3.5 0 0 1-3.5-3.5v-6.055a3.5 3.5 0 0 1 7 0v6.055a3.5 3.5 0 0 1-3.5 3.5zm-70 0a3.5 3.5 0 0 1-3.5-3.5v-6.055a3.5 3.5 0 0 1 7 0v6.055a3.5 3.5 0 0 1-3.5 3.5z"></path></svg>