<svg width="24" height="24" viewBox="0 0 24 24" fill="none" xmlns="http://www.w3.org/2000/svg">
<path d="M12 24C18.6274 24 24 18.6274 24 12C24 5.37258 18.6274 0 12 0C5.37261 0 3.05176e-05 5.37258 3.05176e-05 12C3.05176e-05 18.6274 5.37261 24 12 24Z" fill="#FF712D"/>
<path d="M19.6658 8.14945C19.5746 7.8083 19.3952 7.49722 19.1455 7.24753C18.8958 6.99784 18.5847 6.81838 18.2436 6.72722C17.0027 6.40722 12 6.40723 12 6.40723C12 6.40723 6.99736 6.40723 5.74936 6.74145C5.40822 6.8326 5.09713 7.01206 4.84744 7.26175C4.59776 7.51144 4.4183 7.82253 4.32714 8.16367C3.99292 9.40812 3.99292 12.0143 3.99292 12.0143C3.99292 12.0143 3.99292 14.6188 4.32714 15.8668C4.41916 16.2065 4.59906 16.516 4.84874 16.7642C5.09841 17.0123 5.40905 17.1902 5.74936 17.2801C6.99736 17.6072 12 17.6072 12 17.6072C12 17.6072 17.0027 17.6072 18.2507 17.273C18.591 17.1831 18.9016 17.0052 19.1513 16.757C19.401 16.5089 19.5809 16.1994 19.6729 15.8597C20.0071 14.6152 20.0071 12.0072 20.0071 12.0072C20.0071 12.0072 20 9.39745 19.6658 8.14945ZM10.4 14.4072V9.60723L14.5565 12.0072L10.4 14.4072Z" fill="white"/>
</svg>
